<?xml version="1.0" encoding="UTF-8"?>
<svg version="1.1" xmlns="http://www.w3.org/2000/svg" width="128" height="128">
<path d="M0 0 C2 2 2 2 2.125 5.125 C2.08375 6.07375 2.0425 7.0225 2 8 C3.85625 8.556875 3.85625 8.556875 5.75 9.125 C9.08555705 10.12566711 9.88652314 10.81703731 11.7734375 13.859375 C14.6162752 17.86927239 17.47794784 19.16447949 21.875 21.125 C36.22211789 27.75288934 36.22211789 27.75288934 39 33 C39.4133256 36.96792579 39.09678815 39.59271925 37 43 C37.495 43.33 37.99 43.66 38.5 44 C40.45535775 46.60714366 40.41849055 48.80157418 40.2890625 51.99609375 C39.86596903 54.92916066 38.90788918 56.75141633 37 59 C34.8125 59.8125 34.8125 59.8125 33 60 C32.67 61.65 32.34 63.3 32 65 C32.804375 65.53625 33.60875 66.0725 34.4375 66.625 C37 69 37 69 37.9375 72.0625 C38 75 38 75 36 78 C35.896875 79.11375 35.79375 80.2275 35.6875 81.375 C34.85421717 85.76867312 33.38957599 87.1891321 30 90 C26.31833802 91.84083099 22.02754194 91.36729156 18 91 C13.48684211 88.97368421 13.48684211 88.97368421 12 86 C10.35 86.33 8.7 86.66 7 87 C11.63466401 91.05269101 11.63466401 91.05269101 17 94 C17 94.66 17 95.32 17 96 C17.5775 96.226875 18.155 96.45375 18.75 96.6875 C23.72295443 99.58839008 26.22436161 104.87792148 28.75 109.875 C29.06582031 110.46152344 29.38164063 111.04804687 29.70703125 111.65234375 C32.09535447 116.35661676 32 118.27762862 32 124 C4.61 124 -22.78 124 -51 124 C-49.01832151 117.39440503 -47.17587416 111.66785114 -44.125 105.625 C-43.79886719 104.94050781 -43.47273438 104.25601563 -43.13671875 103.55078125 C-40.60242128 98.47232523 -37.91458166 95.24182494 -32.54296875 92.953125 C-31.76566406 92.72109375 -30.98835938 92.4890625 -30.1875 92.25 C-29.39730469 92.00765625 -28.60710938 91.7653125 -27.79296875 91.515625 C-27.20128906 91.34546875 -26.60960937 91.1753125 -26 91 C-26 90.01 -26 89.02 -26 88 C-24.02 87.01 -24.02 87.01 -22 86 C-24.64 85.01 -27.28 84.02 -30 83 C-30.5775 83.61875 -31.155 84.2375 -31.75 84.875 C-35.01343624 87.95713423 -37.8146546 89.30826236 -42.3125 89.5 C-46.79430616 89.35901603 -49.53775427 88.15966829 -52.76171875 85.046875 C-54.79779448 81.68124824 -54.46326985 78.51043527 -54.1484375 74.68359375 C-53.88676652 71.98698687 -53.88676652 71.98698687 -54.53515625 69.3359375 C-55.13364072 66.32842729 -54.316031 64.70947559 -53 62 C-53.78375 61.4225 -54.5675 60.845 -55.375 60.25 C-58.38770602 57.66768056 -59.74846748 55.79666083 -60.30078125 51.8515625 C-60.32736038 46.80152789 -59.95053053 43.28302819 -57 39 C-54.77584456 36.84998307 -52.44708191 34.89062219 -50 33 C-50.20625 32.42121094 -50.4125 31.84242187 -50.625 31.24609375 C-51.22074833 27.67780947 -49.5303973 25.84429108 -47.57421875 22.9609375 C-42.65541724 16.83379518 -36.44185914 14.84174784 -29 13 C-29 11.02 -29 9.04 -29 7 C-25.35176961 4.66513255 -22.25589957 4.69600717 -18 5 C-15.5625 6 -15.5625 6 -14 7 C-13.9175 6.401875 -13.835 5.80375 -13.75 5.1875 C-11.63846188 -0.97115284 -5.6090703 -0.83378072 0 0 Z " fill="#561106" transform="translate(74,4)"/>
<path d="M0 0 C2 2 2 2 2.125 5.125 C2.08375 6.07375 2.0425 7.0225 2 8 C3.85625 8.556875 3.85625 8.556875 5.75 9.125 C9.08555705 10.12566711 9.88652314 10.81703731 11.7734375 13.859375 C14.6162752 17.86927239 17.47794784 19.16447949 21.875 21.125 C36.22211789 27.75288934 36.22211789 27.75288934 39 33 C39.4133256 36.96792579 39.09678815 39.59271925 37 43 C37.495 43.33 37.99 43.66 38.5 44 C40.45535775 46.60714366 40.41849055 48.80157418 40.2890625 51.99609375 C39.86596903 54.92916066 38.90788918 56.75141633 37 59 C34.8125 59.8125 34.8125 59.8125 33 60 C33 60.66 33 61.32 33 62 C31.8553125 62.433125 31.8553125 62.433125 30.6875 62.875 C27.84970692 63.96269013 27.84970692 63.96269013 25 66 C25 66.66 25 67.32 25 68 C26.093125 67.95875 27.18625 67.9175 28.3125 67.875 C32 68 32 68 35 70 C35.1875 72.625 35.1875 72.625 35 75 C32 76 32 76 30 76 C31.485 76.99 31.485 76.99 33 78 C32.52039967 84.35470441 32.52039967 84.35470441 30.4375 86.9375 C26.95145136 88.45705966 23.69793486 88.69565111 20 88 C17 86 17 86 15 84 C15.495 82.02 15.495 82.02 16 80 C16.66 80 17.32 80 18 80 C18.4640625 78.824375 18.4640625 78.824375 18.9375 77.625 C20 75 20 75 21 73 C21.66 73 22.32 73 23 73 C23 72.34 23 71.68 23 71 C20.69 71 18.38 71 16 71 C16 69.02 16 67.04 16 65 C17.65 64.67 19.3 64.34 21 64 C21.18475167 50.63925468 21.18475167 50.63925468 16 39 C13.83703727 38.79068103 11.6690529 38.63202931 9.5 38.5 C3.11111111 38.11111111 3.11111111 38.11111111 2 37 C1.95919217 35.00041636 1.95745644 32.99954746 2 31 C1.236875 30.71125 0.47375 30.4225 -0.3125 30.125 C-3 29 -3 29 -6 27 C-6.598125 27.66 -7.19625 28.32 -7.8125 29 C-10 31 -10 31 -13 31 C-13.185625 32.7015625 -13.185625 32.7015625 -13.375 34.4375 C-13.58125 35.613125 -13.7875 36.78875 -14 38 C-17.6936945 39.84684725 -22.43690397 39.41134106 -26.375 38.375 C-27.179375 38.189375 -27.179375 38.189375 -28 38 C-30.54221219 40.54221219 -30.36797795 42.49467993 -30.71484375 45.95703125 C-31.07081982 48.50738036 -31.91058424 50.67591304 -33 53 C-33.66 53 -34.32 53 -35 53 C-36.2890625 51.46875 -36.2890625 51.46875 -37.625 49.5 C-38.07101563 48.8503125 -38.51703125 48.200625 -38.9765625 47.53125 C-39.31429687 47.0259375 -39.65203125 46.520625 -40 46 C-41.94999129 46.19471111 -41.94999129 46.19471111 -44 47 C-46.15755085 50.01242948 -46.22050748 52.6207157 -46.125 56.25 C-46.09792969 57.58804688 -46.09792969 57.58804688 -46.0703125 58.953125 C-46.04710937 59.62859375 -46.02390625 60.3040625 -46 61 C-47.093125 60.835 -48.18625 60.67 -49.3125 60.5 C-52.87525873 59.93281816 -52.87525873 59.93281816 -56 60 C-59.71517993 55.86022808 -60.6008097 52.54674654 -60.3125 47.16796875 C-59.33573266 40.39164535 -55.12630066 36.96059394 -50 33 C-50.20625 32.42121094 -50.4125 31.84242187 -50.625 31.24609375 C-51.22074833 27.67780947 -49.5303973 25.84429108 -47.57421875 22.9609375 C-42.65541724 16.83379518 -36.44185914 14.84174784 -29 13 C-29 11.02 -29 9.04 -29 7 C-25.35176961 4.66513255 -22.25589957 4.69600717 -18 5 C-15.5625 6 -15.5625 6 -14 7 C-13.9175 6.401875 -13.835 5.80375 -13.75 5.1875 C-11.63846188 -0.97115284 -5.6090703 -0.83378072 0 0 Z " fill="#973200" transform="translate(74,4)"/>
<path d="M0 0 C1.32603821 0.68265293 2.6355861 1.39739258 3.9375 2.125 C4.66839844 2.51945312 5.39929688 2.91390625 6.15234375 3.3203125 C8.70137599 5.63761454 8.70804183 7.6540667 9 11 C9.89203125 11.00257812 10.7840625 11.00515625 11.703125 11.0078125 C21.32574032 11.32574032 21.32574032 11.32574032 24.75 14.75 C26.83013573 20.1583529 27.13411173 25.05601875 27.0625 30.8125 C27.05798828 31.50537109 27.05347656 32.19824219 27.04882812 32.91210938 C27.03713156 34.60811068 27.01919924 36.30406703 27 38 C25.68 38.33 24.36 38.66 23 39 C22.67 40.98 22.34 42.96 22 45 C22.99 45.33 23.98 45.66 25 46 C24.09372009 50.61107251 21.83213123 53.36909452 18 56 C7.83876177 60.32495741 -6.43247754 61.11251196 -16.875 57.25 C-21.33688456 55.29112385 -23.2944317 52.58752868 -25.25 48.1875 C-26.12292723 44.47755926 -25.56402561 41.73666969 -25 38 C-25.66 37.01 -26.32 36.02 -27 35 C-29.00806846 35.0323882 -31.01630515 35.06738145 -33.0234375 35.13671875 C-35 35 -35 35 -37.5 33.375 C-39.44280469 30.29889257 -39.52224493 28.58110811 -39 25 C-37.5 22.625 -37.5 22.625 -36 21 C-33.00675737 22.0975223 -32.15389099 22.67682892 -30.75 25.625 C-30.5025 26.40875 -30.255 27.1925 -30 28 C-29.278125 27.835 -28.55625 27.67 -27.8125 27.5 C-26.884375 27.665 -25.95625 27.83 -25 28 C-23.8359375 29.78125 -23.8359375 29.78125 -22.6875 32 C-21.05175468 35.08998206 -21.05175468 35.08998206 -18.08203125 36.6015625 C-14.1248939 36.64610814 -10.44055466 36.02385568 -7 34 C-4.39104678 30.64563157 -4.63350249 27.10477208 -5 23 C-5.76391002 20.48130668 -5.76391002 20.48130668 -8 19 C-12.10971204 17.92308124 -15.7563312 17.67556466 -19.875 18.75 C-21.95613972 19.97419984 -23.33805451 21.27157669 -25 23 C-25.08131463 21.56344146 -25.13933559 20.1255517 -25.1875 18.6875 C-25.22230469 17.88699219 -25.25710937 17.08648437 -25.29296875 16.26171875 C-25 14 -25 14 -23.73828125 12.14453125 C-22 11 -22 11 -20.140625 11.30859375 C-19.43421875 11.53675781 -18.7278125 11.76492187 -18 12 C-16.25113019 12.06624507 -14.49997252 12.08552595 -12.75 12.0625 C-11.85796875 12.05347656 -10.9659375 12.04445313 -10.046875 12.03515625 C-9.37140625 12.02355469 -8.6959375 12.01195312 -8 12 C-7.938125 10.906875 -7.87625 9.81375 -7.8125 8.6875 C-7 5 -7 5 -4.5625 3.1875 C-3.716875 2.795625 -2.87125 2.40375 -2 2 C-1.34 1.34 -0.68 0.68 0 0 Z " fill="#F6C58F" transform="translate(68,30)"/>
<path d="M0 0 C2.9375 1.375 2.9375 1.375 4.4375 3.5 C4.9325 4.11875 5.4275 4.7375 5.9375 5.375 C8.97923894 5.54170273 8.97923894 5.54170273 11.9375 5.375 C12.5975 6.035 13.2575 6.695 13.9375 7.375 C18.44067123 7.02236215 18.44067123 7.02236215 21.9375 4.375 C23.92571313 3.97735737 25.92694339 3.63724651 27.9375 3.375 C28.2675 2.385 28.5975 1.395 28.9375 0.375 C31.25 -0.25 31.25 -0.25 33.9375 -0.625 C36.9375 1.375 36.9375 1.375 37.44580078 3.51049805 C37.53837158 4.81047729 37.53837158 4.81047729 37.6328125 6.13671875 C37.70886719 7.09126953 37.78492188 8.04582031 37.86328125 9.02929688 C37.96189453 10.53073242 37.96189453 10.53073242 38.0625 12.0625 C38.20938681 14.02485627 38.35779132 15.98709961 38.5078125 17.94921875 C38.56727051 18.82151123 38.62672852 19.69380371 38.68798828 20.5925293 C38.98159274 23.8667074 39.47260333 27.12072329 39.9375 30.375 C25.0875 30.375 10.2375 30.375 -5.0625 30.375 C-5.5 18.6875 -5.5 18.6875 -5.63061523 15.02856445 C-5.66872314 14.066521 -5.70683105 13.10447754 -5.74609375 12.11328125 C-5.78275146 11.13399658 -5.81940918 10.15471191 -5.85717773 9.14575195 C-6.05469333 6.48034823 -6.47823033 3.98030212 -7.0625 1.375 C-4.33642993 -0.51227928 -3.31814351 -0.67717215 0 0 Z " fill="#FCFBC9" transform="translate(50.0625,97.625)"/>
<path d="M0 0 C1.32603821 0.68265293 2.6355861 1.39739258 3.9375 2.125 C4.66839844 2.51945312 5.39929688 2.91390625 6.15234375 3.3203125 C8.70137599 5.63761454 8.70804183 7.6540667 9 11 C9.90363281 11.02578125 10.80726562 11.0515625 11.73828125 11.078125 C12.91777344 11.13484375 14.09726563 11.1915625 15.3125 11.25 C16.48425781 11.29640625 17.65601563 11.3428125 18.86328125 11.390625 C22 12 22 12 23.9375 13.90625 C25 16 25 16 24.6875 18.25 C24.460625 18.8275 24.23375 19.405 24 20 C23.484375 19.67 22.96875 19.34 22.4375 19 C19.03878205 17.60565417 16.64405552 17.55248441 13 18 C9.85641749 19.7260029 9.85641749 19.7260029 8 23 C7.74967274 25.65764112 7.80817641 28.133088 8.01953125 30.79296875 C8 33 8 33 6 35 C5.401875 34.01 4.80375 33.02 4.1875 32 C3.465625 31.01 2.74375 30.02 2 29 C1.01 29 0.02 29 -1 29 C-2.70532323 30.94009522 -2.70532323 30.94009522 -4 33 C-5 30 -5 30 -4.875 26.5625 C-4.79678333 23.12732503 -4.79678333 23.12732503 -5.9375 20.625 C-9.25815094 18.00872957 -12.85911242 17.92709705 -17 18 C-20.65336779 18.95305247 -22.43334268 20.33067639 -25 23 C-25.08131463 21.56344146 -25.13933559 20.1255517 -25.1875 18.6875 C-25.22230469 17.88699219 -25.25710937 17.08648437 -25.29296875 16.26171875 C-25 14 -25 14 -23.73828125 12.14453125 C-22 11 -22 11 -20.140625 11.30859375 C-19.43421875 11.53675781 -18.7278125 11.76492187 -18 12 C-16.25113019 12.06624507 -14.49997252 12.08552595 -12.75 12.0625 C-11.41195312 12.04896484 -11.41195312 12.04896484 -10.046875 12.03515625 C-9.37140625 12.02355469 -8.6959375 12.01195312 -8 12 C-7.938125 10.906875 -7.87625 9.81375 -7.8125 8.6875 C-7 5 -7 5 -4.5625 3.1875 C-3.716875 2.795625 -2.87125 2.40375 -2 2 C-1.34 1.34 -0.68 0.68 0 0 Z " fill="#F8C791" transform="translate(68,30)"/>
<path d="M0 0 C3.90870606 5.9078837 6.97603491 11.84241069 6 19 C7.093125 18.79375 8.18625 18.5875 9.3125 18.375 C13 18 13 18 16 20 C16.1875 22.625 16.1875 22.625 16 25 C17.65 25 19.3 25 21 25 C19.02 25.99 19.02 25.99 17 27 C17 27.66 17 28.32 17 29 C16.236875 29.28875 15.47375 29.5775 14.6875 29.875 C11.84970692 30.96269013 11.84970692 30.96269013 9 33 C9 33.66 9 34.32 9 35 C10.6396875 34.938125 10.6396875 34.938125 12.3125 34.875 C16 35 16 35 19 37 C19.1875 39.625 19.1875 39.625 19 42 C16 43 16 43 14 43 C14.99 43.66 15.98 44.32 17 45 C16.52039967 51.35470441 16.52039967 51.35470441 14.4375 53.9375 C10.95145136 55.45705966 7.69793486 55.69565111 4 55 C1 53 1 53 -1 51 C-0.67 49.68 -0.34 48.36 0 47 C0.66 47 1.32 47 2 47 C2.4640625 45.824375 2.4640625 45.824375 2.9375 44.625 C4 42 4 42 5 40 C5.66 40 6.32 40 7 40 C7 39.34 7 38.68 7 38 C4.69 38 2.38 38 0 38 C0 36.02 0 34.04 0 32 C2.475 31.505 2.475 31.505 5 31 C5.18475167 17.63925468 5.18475167 17.63925468 0 6 C-1.34747084 5.76924918 -2.70377565 5.58846937 -4.0625 5.4375 C-5.361875 5.293125 -6.66125 5.14875 -8 5 C-8 4.67 -8 4.34 -8 4 C-6.35 4 -4.7 4 -3 4 C-3.33 3.01 -3.66 2.02 -4 1 C-6.31 0.67 -8.62 0.34 -11 0 C-11 -0.33 -11 -0.66 -11 -1 C-3.48982732 -2.44426398 -3.48982732 -2.44426398 0 0 Z " fill="#953100" transform="translate(90,37)"/>
<path d="M0 0 C2 2 2 2 2.125 5.125 C2.08375 6.07375 2.0425 7.0225 2 8 C3.85625 8.556875 3.85625 8.556875 5.75 9.125 C9.08555705 10.12566711 9.88652314 10.81703731 11.7734375 13.859375 C14.6162752 17.86927239 17.47794784 19.16447949 21.875 21.125 C36.22211789 27.75288934 36.22211789 27.75288934 39 33 C39.4133256 36.96792579 39.09678815 39.59271925 37 43 C37.495 43.33 37.99 43.66 38.5 44 C40.80772658 47.07696877 40.4494799 50.3378441 40 54 C39 56.5 39 56.5 38 58 C36.02 57.505 36.02 57.505 34 57 C34.495 56.46375 34.99 55.9275 35.5 55.375 C37.46942769 52.25673949 37.67927401 50.62279473 37 47 C34.06425129 44.58616217 31.59857289 43.1995243 28 42 C28 41.34 28 40.68 28 40 C30.64 39.67 33.28 39.34 36 39 C36 36.69 36 34.38 36 32 C34.89591797 31.59394531 34.89591797 31.59394531 33.76953125 31.1796875 C31.12072788 30.05142429 29.03238933 28.77971167 26.6875 27.125 C20.28378038 22.78151522 14.79051515 19.6492096 7 19 C7 18.34 7 17.68 7 17 C7.99 17 8.98 17 10 17 C7.72228105 14.19155042 6.63802112 13.08264522 2.984375 12.609375 C1.38335937 12.67898437 1.38335937 12.67898437 -0.25 12.75 C-1.32765625 12.78609375 -2.4053125 12.8221875 -3.515625 12.859375 C-4.33546875 12.90578125 -5.1553125 12.9521875 -6 13 C-6 12.34 -6 11.68 -6 11 C-5.34 10.566875 -4.68 10.13375 -4 9.6875 C-1.69657929 8.14416344 -1.69657929 8.14416344 -1.75 5.3125 C-1.8325 4.549375 -1.915 3.78625 -2 3 C-4.64 3.33 -7.28 3.66 -10 4 C-10.66 5.98 -11.32 7.96 -12 10 C-12.55171875 9.83628906 -13.1034375 9.67257812 -13.671875 9.50390625 C-16.26614007 8.94239586 -18.59835411 8.90260992 -21.25 8.9375 C-22.14203125 8.94652344 -23.0340625 8.95554687 -23.953125 8.96484375 C-24.62859375 8.97644531 -25.3040625 8.98804688 -26 9 C-26 9.99 -26 10.98 -26 12 C-25.01 12.66 -24.02 13.32 -23 14 C-26.50406573 15.573254 -29.70768406 16.92559231 -33.4375 17.875 C-38.28475626 19.4057125 -43.3976273 21.53404326 -46.25390625 25.9296875 C-47.39091117 29.08472734 -46.62101458 31.77072416 -46 35 C-47.0725 35.53625 -48.145 36.0725 -49.25 36.625 C-53.05267371 38.83872689 -55.08589764 40.942103 -57 45 C-58.14932921 51.49311758 -56.64187683 55.6509934 -53 61 C-55.58484592 60.0195412 -56.94843031 59.06077857 -58.75 56.9375 C-60.93605854 51.80026243 -60.68834907 47.06504721 -58.9375 41.8125 C-56.44706348 38.19735021 -53.45556344 35.66977778 -50 33 C-50.20625 32.42121094 -50.4125 31.84242187 -50.625 31.24609375 C-51.22074833 27.67780947 -49.5303973 25.84429108 -47.57421875 22.9609375 C-42.65541724 16.83379518 -36.44185914 14.84174784 -29 13 C-29 11.02 -29 9.04 -29 7 C-25.35176961 4.66513255 -22.25589957 4.69600717 -18 5 C-15.5625 6 -15.5625 6 -14 7 C-13.9175 6.401875 -13.835 5.80375 -13.75 5.1875 C-11.63846188 -0.97115284 -5.6090703 -0.83378072 0 0 Z " fill="#440900" transform="translate(74,4)"/>
<path d="M0 0 C1 1 1 1 1.0625 4.0625 C1.041875 5.031875 1.02125 6.00125 1 7 C-0.65 7.66 -2.3 8.32 -4 9 C-2.35 9.66 -0.7 10.32 1 11 C0.9129995 12.62600941 0.8048219 14.25089678 0.6875 15.875 C0.62949219 16.77992187 0.57148437 17.68484375 0.51171875 18.6171875 C0 21 0 21 -3 23 C-6.71928968 23.53943896 -10.28042865 23.5401174 -14 23 C-17.28130621 20.40547881 -17.88070342 18.99413817 -18.375 14.875 C-18 12 -18 12 -16 9 C-16.99 8.67 -17.98 8.34 -19 8 C-18.74055907 4.80022852 -18.45601513 3.39901324 -16 1.25 C-10.8537714 -0.89426191 -5.38379142 -1.74354733 0 0 Z " fill="#963100" transform="translate(41,67)"/>
<path d="M0 0 C3.29972309 2.73635573 3.90682608 4.25460868 4.4375 8.5 C3.96997662 12.24018705 3.39529422 14.10912767 1 17 C-2.43053799 19.05832279 -6.09897258 19.61290603 -10.0625 19.5078125 C-13.24933169 18.67255419 -14.5136619 16.75355884 -16.15234375 14.00390625 C-17.51909974 10.7728195 -17.57331913 8.43991477 -17 5 C-14.21035599 0.41701341 -14.21035599 0.41701341 -11.140625 -0.640625 C-7.32102068 -1.28187244 -3.73933504 -0.98800779 0 0 Z " fill="#692416" transform="translate(60,48)"/>
<path d="M0 0 C3.20802233 -0.11698258 6.41549025 -0.18750607 9.625 -0.25 C10.98044922 -0.30027344 10.98044922 -0.30027344 12.36328125 -0.3515625 C18.1914381 -0.43664508 21.64035536 -0.02651565 26 4 C26 4.99 26 5.98 26 7 C25.01 7 24.02 7 23 7 C22.67 8.32 22.34 9.64 22 11 C20.906875 11.28875 19.81375 11.5775 18.6875 11.875 C14.95986155 12.81893204 14.95986155 12.81893204 12 15 C9.15879766 14.64484971 6.71952248 13.90650749 4 13 C3.154375 12.87625 2.30875 12.7525 1.4375 12.625 C-1 12 -1 12 -3 9 C-4.63495707 7.94895617 -6.29883624 6.94011682 -8 6 C-7.34 5.67 -6.68 5.34 -6 5 C-5.67 4.01 -5.34 3.02 -5 2 C-2 3 -2 3 -1 5 C-0.67 3.35 -0.34 1.7 0 0 Z " fill="#593A2F" transform="translate(56,91)"/>
<path d="M0 0 C0.9821994 3.27626375 1.11580914 6.22788119 1.09765625 9.640625 C1.09443359 10.71054688 1.09121094 11.78046875 1.08789062 12.8828125 C1.07951172 13.99398437 1.07113281 15.10515625 1.0625 16.25 C1.05798828 17.37664062 1.05347656 18.50328125 1.04882812 19.6640625 C1.03705411 22.44273106 1.019119 25.22137227 1 28 C-4.61 28 -10.22 28 -16 28 C-15.1129091 22.67745461 -13.91698635 18.83622781 -11.8125 14 C-11.53341797 13.31421875 -11.25433594 12.6284375 -10.96679688 11.921875 C-9.0500544 7.48755687 -5.49100293 0 0 0 Z " fill="#F9C891" transform="translate(42,100)"/>
<path d="M0 0 C3.01472604 2.61805156 3.88721562 4.61230368 5 8.4375 C5 12.90594249 3.88580029 14.6462321 1 18 C-1.71897494 20.1564284 -3.02161264 19.99924166 -6.5625 19.875 C-10 19 -10 19 -11.9375 17.5 C-13.56600037 13.66823443 -13.67870271 10.0941099 -13 6 C-9.4662161 0.34594577 -6.60349746 -0.68312043 0 0 Z " fill="#602704" transform="translate(88,47)"/>
<path d="M0 0 C4.86419018 2.81830761 7.59743862 5.7165814 10.3125 10.6875 C10.65861328 11.30383301 11.00472656 11.92016602 11.36132812 12.55517578 C14.00857602 17.49747923 15 21.44227194 15 27 C11.04 27 7.08 27 3 27 C0.2228331 17.62706171 -0.35709808 9.68132585 0 0 Z " fill="#F9C791" transform="translate(89,101)"/>
<path d="M0 0 C0.66 0 1.32 0 2 0 C2.33 0.99 2.66 1.98 3 3 C8.20590528 7.55516712 12.13183149 8.82868514 19 9 C19.495 12.465 19.495 12.465 20 16 C18.35492782 16.19406478 16.70890406 16.38007935 15.0625 16.5625 C14.14597656 16.66691406 13.22945312 16.77132812 12.28515625 16.87890625 C11.15400391 16.93884766 11.15400391 16.93884766 10 17 C9 16 9 16 8.9375 12.9375 C8.958125 11.968125 8.97875 10.99875 9 10 C8.236875 9.71125 7.47375 9.4225 6.6875 9.125 C4 8 4 8 1 6 C0.401875 6.66 -0.19625 7.32 -0.8125 8 C-3 10 -3 10 -6 10 C-6.12375 11.134375 -6.2475 12.26875 -6.375 13.4375 C-6.684375 15.2009375 -6.684375 15.2009375 -7 17 C-10.73974432 18.86987216 -15.46790828 18.30641834 -19.5 17.5 C-19.995 17.335 -20.49 17.17 -21 17 C-23.50298434 19.93828597 -24.46930939 22.17902761 -25 26 C-25.33 26 -25.66 26 -26 26 C-26.80106488 21.9056684 -26.57897568 19.97210732 -24.41796875 16.34375 C-21.29227794 12.42396477 -18.86442172 9.4492302 -13.87109375 8.24609375 C-10.6875 8.0625 -10.6875 8.0625 -7.69921875 8.16015625 C-4.48498705 7.96944207 -3.27303862 7.23629204 -1 5 C-0.1957792 2.40144267 -0.1957792 2.40144267 0 0 Z " fill="#641708" transform="translate(67,25)"/>
<path d="M0 0 C3.17538332 0.34021964 4.02276865 1.02466604 6.25 3.4375 C8 6 8 6 8 8 C8.66 8 9.32 8 10 8 C10.33 6.35 10.66 4.7 11 3 C13 6 13 6 13 9 C11.02 9.33 9.04 9.66 7 10 C5.02 6.535 5.02 6.535 3 3 C-0.11785113 3.64644661 -0.11785113 3.64644661 -1 6 C-1.349104 10.09185129 -1.349104 10.09185129 0 13.875 C2.3261467 15.18345752 3.37679057 15.0580519 6 14.9375 C9.7517141 14.82695225 9.7517141 14.82695225 12.0625 16.4375 C13.09307241 19.25439791 12.9076213 20.35425286 12.4375 23.25 C11.60872957 28.45571426 13.24147705 31.65503037 16 36 C14.35 36 12.7 36 11 36 C10.67 36.99 10.34 37.98 10 39 C10 35.7 10 32.4 10 29 C8.35 28.34 6.7 27.68 5 27 C8 25 8 25 11 25 C10.34 22.69 9.68 20.38 9 18 C7.10333474 18.08772455 5.20761007 18.19591301 3.3125 18.3125 C2.25675781 18.37050781 1.20101562 18.42851563 0.11328125 18.48828125 C-3.26740543 19.04395246 -5.25800834 19.97331051 -8 22 C-8.87822312 24.08533633 -8.87822312 24.08533633 -9 26 C-7.68 26.33 -6.36 26.66 -5 27 C-5.66 27.99 -6.32 28.98 -7 30 C-7.38499891 31.65549531 -7.72793135 33.3222433 -8 35 C-8.33 35 -8.66 35 -9 35 C-11.66851787 28.21563252 -12.34923751 24.04771254 -10 17 C-10.33 16.01 -10.66 15.02 -11 14 C-8.36 14.66 -5.72 15.32 -3 16 C-3.33 15.01 -3.66 14.02 -4 13 C-4.53935652 7.28282089 -3.52168246 4.51215565 0 0 Z " fill="#440800" transform="translate(31,49)"/>
<path d="M0 0 C3.90870606 5.9078837 6.97603491 11.84241069 6 19 C7.093125 18.79375 8.18625 18.5875 9.3125 18.375 C13 18 13 18 16 20 C16.1875 22.625 16.1875 22.625 16 25 C17.65 25 19.3 25 21 25 C19.02 25.99 19.02 25.99 17 27 C17 27.66 17 28.32 17 29 C16.2575 29.28875 15.515 29.5775 14.75 29.875 C12.08264178 30.89272461 12.08264178 30.89272461 10.0625 32.125 C7.31563094 33.29033839 4.94998931 33.13409042 2 33 C2 33.99 2 34.98 2 36 C1.34 36 0.68 36 0 36 C0.33 34.35 0.66 32.7 1 31 C2.32 31 3.64 31 5 31 C5.18475167 17.63925468 5.18475167 17.63925468 0 6 C-1.34747084 5.76924918 -2.70377565 5.58846937 -4.0625 5.4375 C-5.361875 5.293125 -6.66125 5.14875 -8 5 C-8 4.67 -8 4.34 -8 4 C-6.35 4 -4.7 4 -3 4 C-3.33 3.01 -3.66 2.02 -4 1 C-6.31 0.67 -8.62 0.34 -11 0 C-11 -0.33 -11 -0.66 -11 -1 C-3.48982732 -2.44426398 -3.48982732 -2.44426398 0 0 Z " fill="#5F1103" transform="translate(90,37)"/>
<path d="M0 0 C0.99 0.33 1.98 0.66 3 1 C4.1875 3.5625 4.1875 3.5625 5 6 C4.01 6.99 3.02 7.98 2 9 C1.67 7.68 1.34 6.36 1 5 C0.34 5 -0.32 5 -1 5 C-1.61875 5.639375 -2.2375 6.27875 -2.875 6.9375 C-5.03520783 9.03417231 -6.08776721 9.58396674 -9 10 C-8.67402832 10.70664795 -8.34805664 11.4132959 -8.01220703 12.14135742 C-6.92197178 15.22036479 -6.76988668 17.48440439 -6.8046875 20.73828125 C-6.81113281 21.80498047 -6.81757812 22.87167969 -6.82421875 23.97070312 C-6.84097656 25.07349609 -6.85773437 26.17628906 -6.875 27.3125 C-6.88402344 28.43462891 -6.89304687 29.55675781 -6.90234375 30.71289062 C-6.92585514 33.47547909 -6.95871845 36.23762932 -7 39 C-7.66 39 -8.32 39 -9 39 C-9.495 25.14 -9.495 25.14 -10 11 C-16.36107063 16.0463499 -16.36107063 16.0463499 -19.6875 22.1875 C-20.07679687 23.1259375 -20.46609375 24.064375 -20.8671875 25.03125 C-22.63653235 29.66815376 -24.37615154 34.30989021 -26 39 C-26.99 39 -27.98 39 -29 39 C-27.50046459 32.5020132 -25.03880285 26.59394689 -22.125 20.625 C-21.79757813 19.93535156 -21.47015625 19.24570313 -21.1328125 18.53515625 C-18.59333475 13.46612058 -15.90948501 10.23965339 -10.54296875 7.953125 C-9.76566406 7.72109375 -8.98835938 7.4890625 -8.1875 7.25 C-7.39730469 7.00765625 -6.60710938 6.7653125 -5.79296875 6.515625 C-5.20128906 6.34546875 -4.60960938 6.1753125 -4 6 C-4 5.01 -4 4.02 -4 3 C-2.1875 1.25 -2.1875 1.25 0 0 Z " fill="#5F2317" transform="translate(52,89)"/>
<path d="M0 0 C3.29123697 0.23508836 4.0798772 1.09067142 6.3125 3.625 C8.35350654 7.70701309 8.25243351 9.6582305 7 14 C4 16 4 16 0.375 15.6875 C-3 15 -3 15 -4 14 C-4.60794251 7.92057494 -3.22342628 4.93587149 0 0 Z " fill="#F39262" transform="translate(67,58)"/>
<path d="M0 0 C0.721875 0.103125 1.44375 0.20625 2.1875 0.3125 C2.1875 0.9725 2.1875 1.6325 2.1875 2.3125 C1.5275 2.3125 0.8675 2.3125 0.1875 2.3125 C0.30179397 4.08405654 0.42933037 5.85476229 0.5625 7.625 C0.63210937 8.61113281 0.70171875 9.59726562 0.7734375 10.61328125 C1.02615472 13.52778433 1.02615472 13.52778433 3.1875 16.3125 C-0.0625 16.625 -0.0625 16.625 -3.8125 16.3125 C-6.7361459 13.7636805 -7.66159176 12.11734394 -8.375 8.3125 C-7.47590126 3.51730674 -4.95381896 0.55042433 0 0 Z " fill="#F4F0C1" transform="translate(52.8125,48.6875)"/>
<path d="M0 0 C1.17369141 0.10054687 1.17369141 0.10054687 2.37109375 0.203125 C4.92212232 0.83974532 5.89857581 1.75971125 7.5625 3.75 C7.16696947 5.4010403 6.74536103 7.0458515 6.3125 8.6875 C5.96445312 10.06228516 5.96445312 10.06228516 5.609375 11.46484375 C4.5625 13.75 4.5625 13.75 2.578125 14.69140625 C1.58039062 14.72041016 1.58039062 14.72041016 0.5625 14.75 C-1.4375 12.75 -1.4375 12.75 -1.66796875 10.65625 C-1.65378906 9.8621875 -1.63960937 9.068125 -1.625 8.25 C-1.61533203 7.05890625 -1.61533203 7.05890625 -1.60546875 5.84375 C-1.4375 3.75 -1.4375 3.75 -0.4375 1.75 C-2.4175 2.08 -4.3975 2.41 -6.4375 2.75 C-6.4375 2.09 -6.4375 1.43 -6.4375 0.75 C-3.98972161 -0.4738892 -2.70359459 -0.266364 0 0 Z " fill="#623000" transform="translate(55.4375,47.25)"/>
<path d="M0 0 C2 2 2 2 2.9375 4.875 C3.98591561 7.95857531 4.74756028 9.68306311 7 12 C9.60030652 12.52160373 9.60030652 12.52160373 12.4375 12.3125 C13.38496094 12.28800781 14.33242188 12.26351562 15.30859375 12.23828125 C17.65681038 12.03038399 19.74244192 11.65645306 22 11 C22 10.01 22 9.02 22 8 C28.625 7.75 28.625 7.75 32 10 C32 10.66 32 11.32 32 12 C30.7625 11.5875 29.525 11.175 28.25 10.75 C26.08157036 10.13901625 26.08157036 10.13901625 24 10 C21.66666667 11.66666667 21.66666667 11.66666667 20 14 C15.77159816 16.5496096 11.8152678 16.88872392 7 16 C3.87652557 14.5522582 1.8230697 12.93525688 0 10 C-0.55941011 6.58251281 -0.42668204 3.42700179 0 0 Z " fill="#440900" transform="translate(20,77)"/>
<path d="M0 0 C0 0.99 0 1.98 0 3 C1.2065625 3.8971875 1.2065625 3.8971875 2.4375 4.8125 C5 7 5 7 5.9375 10.0625 C6 13 6 13 4 16 C3.87625 17.134375 3.7525 18.26875 3.625 19.4375 C2.93360377 23.37845851 2.05091663 24.53958336 -1 27 C-0.67 23.37 -0.34 19.74 0 16 C-0.99 15.34 -1.98 14.68 -3 14 C-2.67 13.34 -2.34 12.68 -2 12 C-0.68 12.33 0.64 12.66 2 13 C2 11.35 2 9.7 2 8 C1.36191406 7.89042969 0.72382812 7.78085938 0.06640625 7.66796875 C-0.75988281 7.50941406 -1.58617188 7.35085937 -2.4375 7.1875 C-3.26121094 7.03667969 -4.08492188 6.88585937 -4.93359375 6.73046875 C-5.61550781 6.48941406 -6.29742187 6.24835938 -7 6 C-7.33 5.01 -7.66 4.02 -8 3 C-3.375 0 -3.375 0 0 0 Z " fill="#3E0700" transform="translate(106,66)"/>
<path d="M0 0 C4.7734375 0.7890625 4.7734375 0.7890625 6.8125 2.6875 C8.40188959 5.78262709 8.56159999 7.56020007 8 11 C5.875 13.875 5.875 13.875 3 16 C-0.3125 16.3125 -0.3125 16.3125 -3 16 C-3 15.34 -3 14.68 -3 14 C-2.01 13.34 -1.02 12.68 0 12 C0.36498034 9.10391601 0.36498034 9.10391601 0.1875 5.875 C0.16042969 4.77929688 0.13335937 3.68359375 0.10546875 2.5546875 C0.05326172 1.29011719 0.05326172 1.29011719 0 0 Z " fill="#EEE6B9" transform="translate(83,49)"/>
<path d="M0 0 C3.09525247 1.03175082 3.88801201 1.77602403 5.375 4.75 C6.1012365 8.52642979 5.49649163 10.50818619 4 14 C1.72970466 13.60856977 0.16591802 13.11258722 -1.75 11.8125 C-3.61326 9.11077301 -3.392614 7.20634765 -3 4 C-1.5 1.625 -1.5 1.625 0 0 Z " fill="#D8A376" transform="translate(32,51)"/>
<path d="M0 0 C4.62 0.66 9.24 1.32 14 2 C14.33 4.31 14.66 6.62 15 9 C13.35492782 9.19406478 11.70890406 9.38007935 10.0625 9.5625 C8.68771484 9.71912109 8.68771484 9.71912109 7.28515625 9.87890625 C6.53105469 9.91886719 5.77695313 9.95882812 5 10 C4 9 4 9 3.9375 5.9375 C3.958125 4.968125 3.97875 3.99875 4 3 C2.68 2.67 1.36 2.34 0 2 C0 1.34 0 0.68 0 0 Z " fill="#651A0C" transform="translate(72,32)"/>
<path d="M0 0 C0.66 0 1.32 0 2 0 C2 0.66 2 1.32 2 2 C2.5775 2.226875 3.155 2.45375 3.75 2.6875 C8.72295443 5.58839008 11.22436161 10.87792148 13.75 15.875 C14.06582031 16.46152344 14.38164063 17.04804687 14.70703125 17.65234375 C16.87470818 21.92201042 17.31575092 25.25159195 17 30 C16.34 30 15.68 30 15 30 C14.79697266 29.01773438 14.79697266 29.01773438 14.58984375 28.015625 C12.20991122 17.92585118 7.71858313 9.01689375 0 2 C0 1.34 0 0.68 0 0 Z " fill="#3B0A04" transform="translate(89,98)"/>
<path d="M0 0 C3.17538332 0.34021964 4.02276865 1.02466604 6.25 3.4375 C8 6 8 6 8 8 C8.66 8 9.32 8 10 8 C10.33 6.35 10.66 4.7 11 3 C13 6 13 6 13 9 C11.02 9.33 9.04 9.66 7 10 C5.02 6.535 5.02 6.535 3 3 C-0.11785113 3.64644661 -0.11785113 3.64644661 -1 6 C-1.25860135 10.05142119 -1.30441554 11.54337669 1 15 C-0.32 15.33 -1.64 15.66 -3 16 C-4.20643566 12.38069302 -4.32268559 9.80768995 -4 6 C-2 2.5625 -2 2.5625 0 0 Z " fill="#661808" transform="translate(31,49)"/>
<path d="M0 0 C2.5625 0.375 2.5625 0.375 4.4375 1.8125 C5.70337669 4.6958858 5.50590155 5.60523717 5 8.625 C4.17122957 13.83071426 5.80397705 17.03003037 8.5625 21.375 C6.9125 21.375 5.2625 21.375 3.5625 21.375 C3.2325 22.365 2.9025 23.355 2.5625 24.375 C2.5625 21.075 2.5625 17.775 2.5625 14.375 C0.0875 13.385 0.0875 13.385 -2.4375 12.375 C0.5625 10.375 0.5625 10.375 3.5625 10.375 C2.9025 8.065 2.2425 5.755 1.5625 3.375 C-1.4075 2.88 -1.4075 2.88 -4.4375 2.375 C-2.4375 0.375 -2.4375 0.375 0 0 Z " fill="#5F1408" transform="translate(38.4375,63.625)"/>
<path d="M0 0 C3.29123697 0.23508836 4.0798772 1.09067142 6.3125 3.625 C8.35350654 7.70701309 8.25243351 9.6582305 7 14 C4 16 4 16 0.375 15.6875 C-3 15 -3 15 -4 14 C-4.60794251 7.92057494 -3.22342628 4.93587149 0 0 Z M1 2 C-1.82918336 5.69970132 -2.41935884 8.38705274 -2 13 C-1.67 13.33 -1.34 13.66 -1 14 C1.33944736 13.71269945 3.6739143 13.38063221 6 13 C6.33321661 8.07202436 6.33321661 8.07202436 4.625 3.5625 C3.13544499 1.76896376 3.13544499 1.76896376 1 2 Z " fill="#712717" transform="translate(67,58)"/>
<path d="M0 0 C3 1 3 1 4 3 C6.52733235 3.65555119 6.52733235 3.65555119 9 4 C9 6.31 9 8.62 9 11 C6.625 10.6875 6.625 10.6875 4 10 C3.34 9.01 2.68 8.02 2 7 C0.36504293 5.94895617 -1.29883624 4.94011682 -3 4 C-2.34 3.67 -1.68 3.34 -1 3 C-0.67 2.01 -0.34 1.02 0 0 Z " fill="#44524A" transform="translate(51,93)"/>
<path d="M0 0 C6.6 0 13.2 0 20 0 C20 0.66 20 1.32 20 2 C15.95680079 5.62493722 11.75827659 5.32215649 6.62109375 5.30078125 C3.9641243 4.99588312 2.28550025 4.34978956 0 3 C0 2.01 0 1.02 0 0 Z " fill="#F8C891" transform="translate(56,91)"/>
<path d="M0 0 C1 1 1 1 1.25 4.875 C1.21138482 7.5635816 1.16389703 8.7295699 -0.25 11.0625 C-2 12 -2 12 -4.1875 11.6875 C-4.785625 11.460625 -5.38375 11.23375 -6 11 C-5 8 -5 8 -3 5 C-4.32 4.67 -5.64 4.34 -7 4 C-7 3.01 -7 2.02 -7 1 C-4.51588385 -0.24205807 -2.74800896 -0.14092354 0 0 Z " fill="#EEBC89" transform="translate(103,57)"/>
<path d="M0 0 C1.16097639 3.87931015 0.64287886 5.41784531 -1.1875 9.0625 C-3.85481389 14.59084332 -5.99311738 20.20358485 -8 26 C-8.99 26 -9.98 26 -11 26 C-8.83925927 16.63679016 -4.41552796 8.45348108 0 0 Z " fill="#440D06" transform="translate(34,102)"/>
<path d="M0 0 C0.99 0 1.98 0 3 0 C4.1757267 3.52718009 4.02571645 6.22090267 3.9375 9.9375 C3.8369559 16.80214859 4.59557131 23.26626603 6 30 C5.34 30 4.68 30 4 30 C1.89100406 23.75276414 1.37120818 17.61488834 0.875 11.0625 C0.78863281 9.99708984 0.70226562 8.93167969 0.61328125 7.83398438 C0.40253655 5.22309173 0.19828865 2.61186316 0 0 Z " fill="#773523" transform="translate(86,98)"/>
<path d="M0 0 C0.85722656 0.18949219 1.71445313 0.37898437 2.59765625 0.57421875 C4.9375 1.3125 4.9375 1.3125 7.9375 3.3125 C8.125 6.4375 8.125 6.4375 7.9375 9.3125 C6.6175 9.6425 5.2975 9.9725 3.9375 10.3125 C3.9375 9.6525 3.9375 8.9925 3.9375 8.3125 C4.9275 8.3125 5.9175 8.3125 6.9375 8.3125 C4.65978105 5.50405042 3.57552112 4.39514522 -0.078125 3.921875 C-1.14546875 3.96828125 -2.2128125 4.0146875 -3.3125 4.0625 C-4.39015625 4.09859375 -5.4678125 4.1346875 -6.578125 4.171875 C-7.39796875 4.21828125 -8.2178125 4.2646875 -9.0625 4.3125 C-9.0625 3.6525 -9.0625 2.9925 -9.0625 2.3125 C-5.95739729 -0.76378505 -4.18023033 -0.98988863 0 0 Z " fill="#440B00" transform="translate(77.0625,12.6875)"/>
<path d="M0 0 C-0.33 0.99 -0.66 1.98 -1 3 C-2.65 3.33 -4.3 3.66 -6 4 C-5.05125 4.78375 -4.1025 5.5675 -3.125 6.375 C-1.32295116 7.86364904 0.34378848 9.34378848 2 11 C-0.64 10.67 -3.28 10.34 -6 10 C-6.33 9.01 -6.66 8.02 -7 7 C-7.99 7 -8.98 7 -10 7 C-10 5.35 -10 3.7 -10 2 C-6.38026598 0.68373308 -3.90432869 0 0 0 Z " fill="#3A0904" transform="translate(87,87)"/>
<path d="M0 0 C0 0.99 0 1.98 0 3 C-0.66 3 -1.32 3 -2 3 C-2.66 4.32 -3.32 5.64 -4 7 C-5.65 6.67 -7.3 6.34 -9 6 C-8.67 3.69 -8.34 1.38 -8 -1 C-4.37673261 -2.2077558 -3.35853631 -1.54311128 0 0 Z " fill="#0BC5C4" transform="translate(81,94)"/>
<path d="M0 0 C2.97 0.495 2.97 0.495 6 1 C6 1.66 6 2.32 6 3 C5.34 3 4.68 3 4 3 C3.731875 3.763125 3.46375 4.52625 3.1875 5.3125 C2 8 2 8 0.375 9.5625 C-1.4608151 11.1502231 -1.4608151 11.1502231 -1 15 C-1.99 15 -2.98 15 -4 15 C-4 14.34 -4 13.68 -4 13 C-6.64 13.33 -9.28 13.66 -12 14 C-9 12 -9 12 -6.625 11.1875 C-3.23562564 9.6542116 -1.30348677 7.91323326 1 5 C0.95020416 2.239835 0.95020416 2.239835 0 0 Z " fill="#6A200F" transform="translate(91,74)"/>
<path d="M0 0 C1.17369141 0.10054687 1.17369141 0.10054687 2.37109375 0.203125 C4.92212232 0.83974532 5.89857581 1.75971125 7.5625 3.75 C7.2325 4.74 6.9025 5.73 6.5625 6.75 C5.9025 6.42 5.2425 6.09 4.5625 5.75 C4.5625 5.09 4.5625 4.43 4.5625 3.75 C3.5725 4.08 2.5825 4.41 1.5625 4.75 C0.76037372 6.62387216 0.76037372 6.62387216 0.375 8.8125 C0.21644531 9.54597656 0.05789062 10.27945313 -0.10546875 11.03515625 C-0.21503906 11.60105469 -0.32460938 12.16695312 -0.4375 12.75 C-0.7675 12.75 -1.0975 12.75 -1.4375 12.75 C-1.4645043 11.29176788 -1.48389787 9.83339325 -1.5 8.375 C-1.51160156 7.56289063 -1.52320313 6.75078125 -1.53515625 5.9140625 C-1.4375 3.75 -1.4375 3.75 -0.4375 1.75 C-2.4175 2.08 -4.3975 2.41 -6.4375 2.75 C-6.4375 2.09 -6.4375 1.43 -6.4375 0.75 C-3.98972161 -0.4738892 -2.70359459 -0.266364 0 0 Z " fill="#591006" transform="translate(55.4375,47.25)"/>
<path d="M0 0 C1.65 0 3.3 0 5 0 C4.67 1.65 4.34 3.3 4 5 C3.34 5 2.68 5 2 5 C2 6.32 2 7.64 2 9 C0.02 9 -1.96 9 -4 9 C-4 9.99 -4 10.98 -4 12 C-4.66 12 -5.32 12 -6 12 C-5.67 10.35 -5.34 8.7 -5 7 C-3.68 7 -2.36 7 -1 7 C-0.67 4.69 -0.34 2.38 0 0 Z " fill="#6E2717" transform="translate(96,61)"/>
<path d="M0 0 C1 1 1 1 1.0625 3.5625 C1.041875 4.366875 1.02125 5.17125 1 6 C2.65 6 4.3 6 6 6 C4.02 6.99 4.02 6.99 2 8 C2 8.66 2 9.32 2 10 C1.01 10 0.02 10 -1 10 C-1.33 7.36 -1.66 4.72 -2 2 C-4.31 2 -6.62 2 -9 2 C-9 1.34 -9 0.68 -9 0 C-5.90842747 -1.54578627 -3.31526981 -0.60277633 0 0 Z " fill="#611F11" transform="translate(105,56)"/>
<path d="M0 0 C2.530472 0.33739627 3.6818563 0.6061078 5.3125 2.625 C6.32680207 6.1289526 5.92516366 8.48437809 5 12 C2.23914168 15.7352789 0.76078108 16.83786633 -3.8125 17.8125 C-5.3903125 17.9053125 -5.3903125 17.9053125 -7 18 C-5 16 -5 16 -1.4375 14.5 C2.06202674 13.41004413 2.06202674 13.41004413 3 11 C3.41527201 6.32818984 2.69993991 3.82491487 0 0 Z " fill="#773422" transform="translate(87,49)"/>
<path d="M0 0 C0 0.99 0 1.98 0 3 C0.99 3.66 1.98 4.32 3 5 C2.67 5.99 2.34 6.98 2 8 C0.51793505 7.745504 -0.96068615 7.47088238 -2.4375 7.1875 C-3.26121094 7.03667969 -4.08492188 6.88585937 -4.93359375 6.73046875 C-5.61550781 6.48941406 -6.29742187 6.24835938 -7 6 C-7.33 5.01 -7.66 4.02 -8 3 C-3.375 0 -3.375 0 0 0 Z " fill="#4F1003" transform="translate(106,66)"/>
<path d="M0 0 C1.98 0 3.96 0 6 0 C6.38218767 1.65614657 6.71395102 3.32457024 7 5 C6 6 6 6 2.9375 6.0625 C1.4834375 6.0315625 1.4834375 6.0315625 0 6 C0 4.02 0 2.04 0 0 Z " fill="#04D8D8" transform="translate(63,97)"/>
<path d="M0 0 C0.66 0 1.32 0 2 0 C2 2.31 2 4.62 2 7 C0.02 7.99 0.02 7.99 -2 9 C-2 9.66 -2 10.32 -2 11 C-1.34 11.33 -0.68 11.66 0 12 C-1.65 11.67 -3.3 11.34 -5 11 C-5.33 9.35 -5.66 7.7 -6 6 C-4.35 6 -2.7 6 -1 6 C-0.67 4.02 -0.34 2.04 0 0 Z " fill="#5D160A" transform="translate(82,54)"/>
<path d="M0 0 C2.64 0 5.28 0 8 0 C8.33 1.32 8.66 2.64 9 4 C5.7 4.33 2.4 4.66 -1 5 C-0.67 3.35 -0.34 1.7 0 0 Z " fill="#903004" transform="translate(78,37)"/>
<path d="M0 0 C0.33 0.66 0.66 1.32 1 2 C-2 3 -2 3 -5 2 C-5.33 2.66 -5.66 3.32 -6 4 C-6.66 3.67 -7.32 3.34 -8 3 C-8.268125 3.639375 -8.53625 4.27875 -8.8125 4.9375 C-10 7 -10 7 -13 8 C-10.64175733 0.72875178 -7.4631798 -0.43056807 0 0 Z " fill="#662012" transform="translate(88,47)"/>
<path d="M0 0 C0.37769531 0.60328125 0.75539063 1.2065625 1.14453125 1.828125 C3.41360925 4.48414051 5.485579 5.39389228 8.6875 6.75 C10.17830078 7.39195313 10.17830078 7.39195313 11.69921875 8.046875 C12.83810547 8.51867187 12.83810547 8.51867187 14 9 C14 9.33 14 9.66 14 10 C9.4888862 10.39803945 6.96921101 9.02510766 3 7 C-0.2366963 6.29241674 -0.2366963 6.29241674 -3 6 C-2.01 5.67 -1.02 5.34 0 5 C0 3.35 0 1.7 0 0 Z " fill="#3A0600" transform="translate(85,17)"/>
<path d="M0 0 C2.5625 0.375 2.5625 0.375 4.4375 1.9375 C6.03206269 5.39238583 5.45302885 7.74438237 4.5625 11.375 C3.5725 11.87 3.5725 11.87 2.5625 12.375 C1.9025 11.715 1.2425 11.055 0.5625 10.375 C1.5525 10.375 2.5425 10.375 3.5625 10.375 C2.9025 8.065 2.2425 5.755 1.5625 3.375 C-1.4075 2.88 -1.4075 2.88 -4.4375 2.375 C-2.4375 0.375 -2.4375 0.375 0 0 Z " fill="#6D200F" transform="translate(38.4375,63.625)"/>
<path d="M0 0 C0.33 0 0.66 0 1 0 C2.32286246 4.96073422 2.08893197 9.91111512 2 15 C1.01 15 0.02 15 -1 15 C-2 13 -2 13 -1.5 9.625 C-1.05084405 6.36861938 -1.21785776 5.01683434 -2 2 C-1.34 1.34 -0.68 0.68 0 0 Z " fill="#D8A375" transform="translate(93,48)"/>
<path d="M0 0 C0.66 0.33 1.32 0.66 2 1 C1.67 2.65 1.34 4.3 1 6 C2.32 6 3.64 6 5 6 C5.66 4.68 6.32 3.36 7 2 C7.99 2.66 8.98 3.32 10 4 C9.01 4 8.02 4 7 4 C6.67 5.32 6.34 6.64 6 8 C3.36 8.33 0.72 8.66 -2 9 C-2.33 7.02 -2.66 5.04 -3 3 C-2.34 3 -1.68 3 -1 3 C-0.67 2.01 -0.34 1.02 0 0 Z " fill="#5B2116" transform="translate(72,94)"/>
<path d="M0 0 C2.97 0 5.94 0 9 0 C8.67 0.66 8.34 1.32 8 2 C8.66 2.66 9.32 3.32 10 4 C4.58461538 5.23076923 4.58461538 5.23076923 1.625 4.0625 C1.08875 3.711875 0.5525 3.36125 0 3 C0 2.01 0 1.02 0 0 Z " fill="#EDBB88" transform="translate(56,91)"/>
<path d="M0 0 C0.99 0 1.98 0 3 0 C4.00685307 3.0205592 4.02876261 4.47076266 3.6875 7.5625 C3.60886719 8.34753906 3.53023438 9.13257812 3.44921875 9.94140625 C3 12 3 12 1 14 C0.67 9.38 0.34 4.76 0 0 Z " fill="#874E38" transform="translate(86,98)"/>
<path d="M0 0 C0.33 2.64 0.66 5.28 1 8 C-1 5 -1 5 -1 1 C-3.31 2.65 -5.62 4.3 -8 6 C-7.625 3.5625 -7.625 3.5625 -7 1 C-4.53721199 -0.231394 -2.7204945 -0.07159196 0 0 Z " fill="#5A1D11" transform="translate(43,99)"/>
<path d="M0 0 C2.475 0.495 2.475 0.495 5 1 C5 2.65 5 4.3 5 6 C3.35 5.67 1.7 5.34 0 5 C0 3.35 0 1.7 0 0 Z " fill="#07D3D2" transform="translate(55,96)"/>
<path d="M0 0 C2.31 0 4.62 0 7 0 C6.67 1.32 6.34 2.64 6 4 C3.69 3.67 1.38 3.34 -1 3 C-0.67 2.01 -0.34 1.02 0 0 Z " fill="#8F2D00" transform="translate(51,37)"/>
<path d="M0 0 C-0.57344937 2.86724686 -0.8614515 3.8614515 -3 6 C-3.71408334 7.98356483 -4.38617742 9.98315437 -5 12 C-6.57499749 8.85000502 -5.70833498 6.36459118 -5 3 C-2.77419355 0 -2.77419355 0 0 0 Z " fill="#783726" transform="translate(49,48)"/>
<path d="M0 0 C0.33 0 0.66 0 1 0 C1.21278058 4.46839215 0.59138085 7.82262526 -1 12 C-1.99 12 -2.98 12 -4 12 C-3.52309796 10.37433394 -3.04340334 8.74948689 -2.5625 7.125 C-2.29566406 6.22007813 -2.02882813 5.31515625 -1.75390625 4.3828125 C-1 2 -1 2 0 0 Z " fill="#380903" transform="translate(27,116)"/>
<path d="M0 0 C0.66 0 1.32 0 2 0 C2 0.66 2 1.32 2 2 C2.598125 2.268125 3.19625 2.53625 3.8125 2.8125 C5.99847854 3.99917406 7.41332594 5.09599113 9 7 C9 7.66 9 8.32 9 9 C5.18063472 7.44396229 2.73955562 5.04395069 0 2 C0 1.34 0 0.68 0 0 Z " fill="#360B05" transform="translate(89,98)"/>
<path d="M0 0 C1.64767247 0.28109113 3.29313145 0.57518526 4.9375 0.875 C5.85402344 1.03742188 6.77054688 1.19984375 7.71484375 1.3671875 C8.46894531 1.57601562 9.22304688 1.78484375 10 2 C10.33 2.66 10.66 3.32 11 4 C8.69 4 6.38 4 4 4 C3.67 4.66 3.34 5.32 3 6 C2.67 5.01 2.34 4.02 2 3 C1.34 2.67 0.68 2.34 0 2 C0 1.34 0 0.68 0 0 Z " fill="#5C1309" transform="translate(52,87)"/>
<path d="M0 0 C0.33 0.66 0.66 1.32 1 2 C3.32156597 2.40729228 5.6568787 2.74438677 8 3 C8 3.33 8 3.66 8 4 C2.06 4.495 2.06 4.495 -4 5 C-4 4.34 -4 3.68 -4 3 C-2 1.375 -2 1.375 0 0 Z " fill="#681500" transform="translate(72,12)"/>
<path d="M0 0 C0.33 1.32 0.66 2.64 1 4 C2.98 4.495 2.98 4.495 5 5 C4.01 6.485 4.01 6.485 3 8 C2.61500109 9.65549531 2.27206865 11.3222433 2 13 C1.67 13 1.34 13 1 13 C-0.10228696 8.59085217 -0.07654536 4.51617599 0 0 Z " fill="#5E1000" transform="translate(21,71)"/>
<path d="M0 0 C0 0.99 0 1.98 0 3 C-3.68754757 2.50168276 -5.60490662 1.89932357 -8 -1 C-4.37673261 -2.2077558 -3.35853631 -1.54311128 0 0 Z " fill="#3B7A72" transform="translate(81,94)"/>
<path d="M0 0 C0.99 0 1.98 0 3 0 C5.60250805 3.37362154 6.36265043 5.76907828 6 10 C3.25722422 6.80009492 1.3697164 3.99500618 0 0 Z " fill="#4D140B" transform="translate(96,107)"/>
<path d="M0 0 C2.64 0 5.28 0 8 0 C8 0.99 8 1.98 8 3 C6.02 3.33 4.04 3.66 2 4 C1.34 2.68 0.68 1.36 0 0 Z " fill="#5F473B" transform="translate(62,102)"/>
<path d="M0 0 C0.66 0.66 1.32 1.32 2 2 C-2.455 2.495 -2.455 2.495 -7 3 C-7.33 2.01 -7.66 1.02 -8 0 C-4.67679974 -1.10773342 -3.30835256 -0.93312508 0 0 Z " fill="#560B01" transform="translate(34,65)"/>
<path d="M0 0 C2.64 0 5.28 0 8 0 C8 0.99 8 1.98 8 3 C5.03 2.67 2.06 2.34 -1 2 C-0.67 1.34 -0.34 0.68 0 0 Z " fill="#550900" transform="translate(51,35)"/>
<path d="M0 0 C2.97 0.495 2.97 0.495 6 1 C6 1.66 6 2.32 6 3 C5.34 3 4.68 3 4 3 C3.67 3.99 3.34 4.98 3 6 C2.34 5.67 1.68 5.34 1 5 C0.375 2.4375 0.375 2.4375 0 0 Z " fill="#5F1306" transform="translate(91,74)"/>
<path d="M0 0 C2.31 0 4.62 0 7 0 C7 0.66 7 1.32 7 2 C5.02 2 3.04 2 1 2 C1 2.99 1 3.98 1 5 C0.34 5 -0.32 5 -1 5 C-0.67 3.35 -0.34 1.7 0 0 Z " fill="#70200B" transform="translate(91,68)"/>
<path d="M0 0 C1.98 0.99 1.98 0.99 4 2 C3.67 2.66 3.34 3.32 3 4 C2.01 3.34 1.02 2.68 0 2 C0 1.34 0 0.68 0 0 Z " fill="#020000" transform="translate(100,24)"/>
</svg>
